# xmcd
#
# Track frame offsets:
# 150
# 11998
# 14779
# 33259
# 54696
# 74788
# 89245
# 108039
# 118823
# 137370
# 154467
#
# Disc length: 2260 seconds
#
#
# Revision: 0
# Processed by: cddbd v1.5.1PL2 Copyright (c) Steve Scherf et al.
# Submitted via: FreeRIP 2.945 
#
DISCID=a308d20b
DTITLE=Mighty 20 Cajun Cakes - Detox Safari
DYEAR=1906
DGENRE=Acid
TTITLE0=Tribal Candy Part 1
TTITLE1=The Detox Safari
TTITLE2=Everything Better
TTITLE3=Pictures on TV (You And Me)
TTITLE4=Left From The Sun
TTITLE5=Orange
TTITLE6=Truth Rumours Lied
TTITLE7=Tribal Candy Part 2
TTITLE8=Bunny Boiler
TTITLE9=The Orange Kng
TTITLE10=Tribal Candy Part 3
EXTD=
EXTT0=
EXTT1=
EXTT2=
EXTT3=
EXTT4=
EXTT5=
EXTT6=
EXTT7=
EXTT8=
EXTT9=
EXTT10=
PLAYORDER=
